<svg width="21" height="21" viewBox="0 0 21 21" fill="none" xmlns="http://www.w3.org/2000/svg">
<path d="M10.5022 4.88006C7.66453 4.88006 5.37563 7.16948 5.37563 10.0078C5.37563 12.8461 7.66453 15.1356 10.5022 15.1356C13.3399 15.1356 15.6288 12.8461 15.6288 10.0078C15.6288 7.16948 13.3399 4.88006 10.5022 4.88006ZM10.5022 13.3415C8.66843 13.3415 7.16927 11.8465 7.16927 10.0078C7.16927 8.16914 8.66397 6.67411 10.5022 6.67411C12.3405 6.67411 13.8352 8.16914 13.8352 10.0078C13.8352 11.8465 12.336 13.3415 10.5022 13.3415ZM17.0343 4.67031C17.0343 5.33527 16.4989 5.86634 15.8385 5.86634C15.1737 5.86634 14.6428 5.33081 14.6428 4.67031C14.6428 4.00982 15.1782 3.47429 15.8385 3.47429C16.4989 3.47429 17.0343 4.00982 17.0343 4.67031ZM20.4297 5.88419C20.3539 4.28205 19.988 2.86288 18.8146 1.69363C17.6456 0.524381 16.2267 0.158432 14.6249 0.0781015C12.9741 -0.0156172 8.02593 -0.0156172 6.37507 0.0781015C4.77775 0.153969 3.3589 0.519918 2.18544 1.68917C1.01199 2.85842 0.650586 4.27759 0.570273 5.87973C0.476576 7.53096 0.476576 12.4802 0.570273 14.1314C0.646124 15.7336 1.01199 17.1527 2.18544 18.322C3.3589 19.4912 4.77328 19.8572 6.37507 19.9375C8.02593 20.0312 12.9741 20.0312 14.6249 19.9375C16.2267 19.8617 17.6456 19.4957 18.8146 18.322C19.9835 17.1527 20.3494 15.7336 20.4297 14.1314C20.5234 12.4802 20.5234 7.53543 20.4297 5.88419ZM18.297 15.9032C17.949 16.7779 17.2752 17.4517 16.3963 17.8043C15.08 18.3265 11.9568 18.206 10.5022 18.206C9.04769 18.206 5.91997 18.322 4.6082 17.8043C3.73369 17.4562 3.05996 16.7823 2.70747 15.9032C2.18544 14.5866 2.30591 11.4627 2.30591 10.0078C2.30591 8.55294 2.18991 5.42453 2.70747 4.11246C3.05549 3.23776 3.72922 2.56388 4.6082 2.21132C5.92443 1.68917 9.04769 1.80966 10.5022 1.80966C11.9568 1.80966 15.0845 1.69363 16.3963 2.21132C17.2708 2.55941 17.9445 3.23329 18.297 4.11246C18.819 5.42899 18.6985 8.55294 18.6985 10.0078C18.6985 11.4627 18.819 14.5911 18.297 15.9032Z" fill="#F8F8F8"/>
</svg>
