<svg width="124" height="60" viewBox="0 0 124 60" fill="none" xmlns="http://www.w3.org/2000/svg">
<rect x="0.5" y="0.5" width="79" height="59" rx="9.5" fill="#EE821E" stroke="#EE821E"/>
<circle cx="40" cy="30" r="30" fill="#EE821E"/>
<circle cx="40" cy="30" r="27.5" fill="#1C1916" stroke="#F8F8F8" stroke-width="5"/>
<ellipse cx="40" cy="29.4792" rx="25" ry="24.4792" fill="#F8F8F8"/>
<path d="M34.8294 47V46.52L35.7894 46.136C36.4294 45.912 36.8454 45.608 37.0374 45.224C37.2614 44.84 37.3734 44.328 37.3734 43.688V18.632C37.3734 17.992 37.2774 17.48 37.0854 17.096C36.8934 16.712 36.4614 16.408 35.7894 16.184L34.8294 15.8V15.32H47.1654V15.8L46.2054 16.184C45.5654 16.408 45.1334 16.712 44.9094 17.096C44.7174 17.48 44.6214 17.992 44.6214 18.632V43.688C44.6214 44.328 44.7174 44.84 44.9094 45.224C45.1334 45.576 45.5654 45.88 46.2054 46.136L47.1654 46.52V47H34.8294Z" fill="#2F2828"/>
<path d="M55.6989 47V46.52L57.6669 46.04C58.9789 45.752 59.6349 44.952 59.6349 43.64V16.28H55.5549C54.3709 16.28 53.5229 16.6 53.0109 17.24C52.4989 17.848 51.9549 18.696 51.3789 19.784L49.6509 23.144H49.1709L49.4109 15.32H77.1069L77.2989 23.144H76.8189L75.0909 19.784C74.5469 18.696 74.0189 17.848 73.5069 17.24C72.9949 16.6 72.1469 16.28 70.9629 16.28H66.8829V43.64C66.8829 44.952 67.5389 45.752 68.8509 46.04L70.8189 46.52V47H55.6989ZM79.3607 47V46.52L80.3687 46.136C81.0407 45.88 81.4567 45.576 81.6167 45.224C81.8087 44.84 81.9047 44.328 81.9047 43.688V18.632C81.9047 17.992 81.8087 17.48 81.6167 17.096C81.4247 16.712 81.0087 16.408 80.3687 16.184L79.3607 15.8V15.32H91.6007V15.8L90.7367 16.184C90.1287 16.408 89.7127 16.728 89.4887 17.144C89.2647 17.528 89.1527 18.04 89.1527 18.68V46.04H96.5447C97.7287 46.04 98.5927 45.752 99.1367 45.176C99.7127 44.6 100.257 43.768 100.769 42.68L102.641 38.648H103.121L102.689 47H79.3607Z" fill="#F8F8F8"/>
<path d="M34.8294 47H34.3294V47.5H34.8294V47ZM34.8294 46.52L34.6437 46.0558L34.3294 46.1815V46.52H34.8294ZM35.7894 46.136L35.6243 45.6641L35.6139 45.6677L35.6037 45.6718L35.7894 46.136ZM37.0374 45.224L36.6055 44.9721L36.5974 44.986L36.5902 45.0004L37.0374 45.224ZM37.0854 17.096L37.5327 16.8724L37.0854 17.096ZM35.7894 16.184L35.6037 16.6482L35.6174 16.6537L35.6313 16.6583L35.7894 16.184ZM34.8294 15.8H34.3294V16.1385L34.6437 16.2642L34.8294 15.8ZM34.8294 15.32V14.82H34.3294V15.32H34.8294ZM47.1654 15.32H47.6654V14.82H47.1654V15.32ZM47.1654 15.8L47.3511 16.2642L47.6654 16.1385V15.8H47.1654ZM46.2054 16.184L46.3706 16.6559L46.381 16.6523L46.3911 16.6482L46.2054 16.184ZM44.9094 17.096L44.4775 16.8441L44.4694 16.858L44.4622 16.8724L44.9094 17.096ZM44.9094 45.224L44.4622 45.4476L44.4738 45.4707L44.4876 45.4924L44.9094 45.224ZM46.2054 46.136L46.0197 46.6002L46.2054 46.136ZM47.1654 46.52H47.6654V46.1815L47.3511 46.0558L47.1654 46.52ZM47.1654 47V47.5H47.6654V47H47.1654ZM35.3294 47V46.52H34.3294V47H35.3294ZM35.0151 46.9842L35.9751 46.6002L35.6037 45.6718L34.6437 46.0558L35.0151 46.9842ZM35.9546 46.6079C36.6488 46.3649 37.2086 45.9997 37.4847 45.4476L36.5902 45.0004C36.4823 45.2163 36.21 45.4591 35.6243 45.6641L35.9546 46.6079ZM37.4693 45.4759C37.7533 44.9891 37.8734 44.3799 37.8734 43.688H36.8734C36.8734 44.2761 36.7695 44.6909 36.6055 44.9721L37.4693 45.4759ZM37.8734 43.688V18.632H36.8734V43.688H37.8734ZM37.8734 18.632C37.8734 17.9493 37.7722 17.3515 37.5327 16.8724L36.6382 17.3196C36.7827 17.6085 36.8734 18.0347 36.8734 18.632H37.8734ZM37.5327 16.8724C37.2527 16.3125 36.6677 15.9497 35.9476 15.7097L35.6313 16.6583C36.2552 16.8663 36.5342 17.1115 36.6382 17.3196L37.5327 16.8724ZM35.9751 15.7198L35.0151 15.3358L34.6437 16.2642L35.6037 16.6482L35.9751 15.7198ZM35.3294 15.8V15.32H34.3294V15.8H35.3294ZM34.8294 15.82H47.1654V14.82H34.8294V15.82ZM46.6654 15.32V15.8H47.6654V15.32H46.6654ZM46.9797 15.3358L46.0197 15.7198L46.3911 16.6482L47.3511 16.2642L46.9797 15.3358ZM46.0403 15.7121C45.3446 15.9556 44.786 16.3153 44.4775 16.8441L45.3413 17.3479C45.4809 17.1087 45.7863 16.8604 46.3706 16.6559L46.0403 15.7121ZM44.4622 16.8724C44.2227 17.3515 44.1214 17.9493 44.1214 18.632H45.1214C45.1214 18.0347 45.2122 17.6085 45.3567 17.3196L44.4622 16.8724ZM44.1214 18.632V43.688H45.1214V18.632H44.1214ZM44.1214 43.688C44.1214 44.3707 44.2227 44.9685 44.4622 45.4476L45.3567 45.0004C45.2122 44.7115 45.1214 44.2853 45.1214 43.688H44.1214ZM44.4876 45.4924C44.7939 45.9738 45.3401 46.3284 46.0197 46.6002L46.3911 45.6718C45.7907 45.4316 45.473 45.1782 45.3313 44.9556L44.4876 45.4924ZM46.0197 46.6002L46.9797 46.9842L47.3511 46.0558L46.3911 45.6718L46.0197 46.6002ZM46.6654 46.52V47H47.6654V46.52H46.6654ZM47.1654 46.5H34.8294V47.5H47.1654V46.5ZM55.6989 47H55.1989V47.5H55.6989V47ZM55.6989 46.52L55.5805 46.0342L55.1989 46.1273V46.52H55.6989ZM57.6669 46.04L57.5597 45.5515L57.5485 45.5542L57.6669 46.04ZM59.6349 16.28H60.1349V15.78H59.6349V16.28ZM53.0109 17.24L53.3935 17.5622L53.4014 17.5523L53.0109 17.24ZM51.3789 19.784L50.937 19.55L50.9343 19.5553L51.3789 19.784ZM49.6509 23.144V23.644H49.956L50.0956 23.3727L49.6509 23.144ZM49.1709 23.144L48.6712 23.1287L48.6554 23.644H49.1709V23.144ZM49.4109 15.32V14.82H48.926L48.9112 15.3047L49.4109 15.32ZM77.1069 15.32L77.6068 15.3077L77.5948 14.82H77.1069V15.32ZM77.2989 23.144V23.644H77.8114L77.7988 23.1317L77.2989 23.144ZM76.8189 23.144L76.3743 23.3727L76.5138 23.644H76.8189V23.144ZM75.0909 19.784L74.6437 20.0076L74.6463 20.0127L75.0909 19.784ZM73.5069 17.24L73.1164 17.5524L73.1245 17.5621L73.5069 17.24ZM66.8829 16.28V15.78H66.3829V16.28H66.8829ZM68.8509 46.04L68.9694 45.5541L68.9581 45.5516L68.8509 46.04ZM70.8189 46.52H71.3189V46.1273L70.9374 46.0342L70.8189 46.52ZM70.8189 47V47.5H71.3189V47H70.8189ZM56.1989 47V46.52H55.1989V47H56.1989ZM55.8174 47.0058L57.7854 46.5258L57.5485 45.5542L55.5805 46.0342L55.8174 47.0058ZM57.7741 46.5284C58.5069 46.3675 59.1115 46.0509 59.5296 45.541C59.9487 45.0299 60.1349 44.3799 60.1349 43.64H59.1349C59.1349 44.2121 58.9932 44.6181 58.7563 44.907C58.5184 45.1971 58.139 45.4245 57.5597 45.5516L57.7741 46.5284ZM60.1349 43.64V16.28H59.1349V43.64H60.1349ZM59.6349 15.78H55.5549V16.78H59.6349V15.78ZM55.5549 15.78C54.2893 15.78 53.264 16.1233 52.6205 16.9277L53.4014 17.5523C53.7819 17.0767 54.4526 16.78 55.5549 16.78V15.78ZM52.6285 16.9179C52.0847 17.5636 51.5217 18.4458 50.937 19.5501L51.8208 20.0179C52.3882 18.9462 52.9132 18.1324 53.3934 17.5621L52.6285 16.9179ZM50.9343 19.5553L49.2063 22.9153L50.0956 23.3727L51.8236 20.0127L50.9343 19.5553ZM49.6509 22.644H49.1709V23.644H49.6509V22.644ZM49.6707 23.1593L49.9107 15.3353L48.9112 15.3047L48.6712 23.1287L49.6707 23.1593ZM49.4109 15.82H77.1069V14.82H49.4109V15.82ZM76.6071 15.3323L76.7991 23.1563L77.7988 23.1317L77.6068 15.3077L76.6071 15.3323ZM77.2989 22.644H76.8189V23.644H77.2989V22.644ZM77.2636 22.9153L75.5356 19.5553L74.6463 20.0127L76.3743 23.3727L77.2636 22.9153ZM75.5382 19.5604C74.9848 18.4536 74.4364 17.5675 73.8894 16.9179L73.1245 17.5621C73.6015 18.1285 74.1091 18.9384 74.6437 20.0076L75.5382 19.5604ZM73.8974 16.9277C73.2539 16.1233 72.2286 15.78 70.9629 15.78V16.78C72.0653 16.78 72.736 17.0767 73.1165 17.5523L73.8974 16.9277ZM70.9629 15.78H66.8829V16.78H70.9629V15.78ZM66.3829 16.28V43.64H67.3829V16.28H66.3829ZM66.3829 43.64C66.3829 44.3799 66.5692 45.0299 66.9883 45.541C67.4064 46.0509 68.011 46.3675 68.7437 46.5284L68.9581 45.5516C68.3789 45.4245 67.9995 45.1971 67.7616 44.907C67.5247 44.6181 67.3829 44.2121 67.3829 43.64H66.3829ZM68.7325 46.5258L70.7005 47.0058L70.9374 46.0342L68.9694 45.5542L68.7325 46.5258ZM70.3189 46.52V47H71.3189V46.52H70.3189ZM70.8189 46.5H55.6989V47.5H70.8189V46.5ZM79.3607 47H78.8607V47.5H79.3607V47ZM79.3607 46.52L79.1827 46.0528L78.8607 46.1754V46.52H79.3607ZM80.3687 46.136L80.1907 45.6688L80.3687 46.136ZM81.6167 45.224L81.1695 45.0004L81.1653 45.0087L81.1615 45.0171L81.6167 45.224ZM81.6167 17.096L82.0639 16.8724L81.6167 17.096ZM80.3687 16.184L80.1906 16.6514L80.2035 16.6559L80.3687 16.184ZM79.3607 15.8H78.8607V16.1446L79.1827 16.2672L79.3607 15.8ZM79.3607 15.32V14.82H78.8607V15.32H79.3607ZM91.6007 15.32H92.1007V14.82H91.6007V15.32ZM91.6007 15.8L91.8038 16.2569L92.1007 16.1249V15.8H91.6007ZM90.7367 16.184L90.9095 16.6532L90.9249 16.6475L90.9398 16.6409L90.7367 16.184ZM89.4887 17.144L89.9206 17.3959L89.9249 17.3886L89.9289 17.381L89.4887 17.144ZM89.1527 46.04H88.6527V46.54H89.1527V46.04ZM99.1367 45.176L98.7831 44.8224L98.7781 44.8275L98.7732 44.8327L99.1367 45.176ZM100.769 42.68L101.221 42.8929L101.222 42.8906L100.769 42.68ZM102.641 38.648V38.148H102.322L102.187 38.4374L102.641 38.648ZM103.121 38.648L103.62 38.6738L103.647 38.148H103.121V38.648ZM102.689 47V47.5H103.163L103.188 47.0258L102.689 47ZM79.8607 47V46.52H78.8607V47H79.8607ZM79.5387 46.9872L80.5467 46.6032L80.1907 45.6688L79.1827 46.0528L79.5387 46.9872ZM80.5467 46.6032C81.2467 46.3366 81.8263 45.9713 82.0719 45.4309L81.1615 45.0171C81.0871 45.1807 80.8346 45.4234 80.1907 45.6688L80.5467 46.6032ZM82.0639 45.4476C82.3034 44.9685 82.4047 44.3707 82.4047 43.688H81.4047C81.4047 44.2853 81.3139 44.7115 81.1695 45.0004L82.0639 45.4476ZM82.4047 43.688V18.632H81.4047V43.688H82.4047ZM82.4047 18.632C82.4047 17.9493 82.3034 17.3515 82.0639 16.8724L81.1695 17.3196C81.3139 17.6085 81.4047 18.0347 81.4047 18.632H82.4047ZM82.0639 16.8724C81.7878 16.3203 81.2281 15.955 80.5339 15.7121L80.2035 16.6559C80.7893 16.8609 81.0615 17.1037 81.1695 17.3196L82.0639 16.8724ZM80.5467 15.7168L79.5387 15.3328L79.1827 16.2672L80.1907 16.6512L80.5467 15.7168ZM79.8607 15.8V15.32H78.8607V15.8H79.8607ZM79.3607 15.82H91.6007V14.82H79.3607V15.82ZM91.1007 15.32V15.8H92.1007V15.32H91.1007ZM91.3976 15.3431L90.5336 15.7271L90.9398 16.6409L91.8038 16.2569L91.3976 15.3431ZM90.5638 15.7148C89.8841 15.9653 89.3487 16.3493 89.0485 16.9069L89.9289 17.381C90.0767 17.1067 90.3733 16.8507 90.9095 16.6532L90.5638 15.7148ZM89.0568 16.8921C88.7728 17.3789 88.6527 17.9881 88.6527 18.68H89.6527C89.6527 18.0919 89.7566 17.6771 89.9206 17.3959L89.0568 16.8921ZM88.6527 18.68V46.04H89.6527V18.68H88.6527ZM89.1527 46.54H96.5447V45.54H89.1527V46.54ZM96.5447 46.54C97.7983 46.54 98.8235 46.2358 99.5002 45.5193L98.7732 44.8327C98.3619 45.2682 97.659 45.54 96.5447 45.54V46.54ZM99.4902 45.5296C100.122 44.8982 100.695 44.0106 101.221 42.8929L100.316 42.4671C99.8183 43.5254 99.3038 44.3018 98.7831 44.8224L99.4902 45.5296ZM101.222 42.8906L103.094 38.8586L102.187 38.4374L100.315 42.4694L101.222 42.8906ZM102.641 39.148H103.121V38.148H102.641V39.148ZM102.621 38.6222L102.189 46.9742L103.188 47.0258L103.62 38.6738L102.621 38.6222ZM102.689 46.5H79.3607V47.5H102.689V46.5Z" fill="#1C1916"/>
</svg>
